<svg width="40" height="40" viewBox="0 0 40 40" fill="none" xmlns="http://www.w3.org/2000/svg">
<path d="M26.7094 7.52344L26.2486 8.32525L25.8047 9.1117L23.9138 12.4756L14.0064 30.1155L10.4182 36.4992C6.39068 37.2289 3.9192 35.6544 2.67194 33.5593C2.37803 33.0645 2.14541 32.5358 1.97918 31.9848C1.84449 31.5336 1.75244 31.0708 1.70423 30.6024C1.61872 29.8516 1.68081 29.0913 1.88702 28.3644C2.86087 25.1679 11.8974 14.2313 19.49 9.92273C20.5376 9.32828 21.4438 8.86286 22.2257 8.50343C24.8999 7.27614 26.1334 7.27306 26.7094 7.52344Z" fill="#D3884A" stroke="#641926" stroke-width="0.5" stroke-miterlimit="10"/>
<path d="M10.3078 34.1084C9.43498 34.0695 8.59208 33.7788 7.88088 33.2713C7.00768 32.8118 6.19588 32.2442 5.46469 31.5816C4.73632 30.9194 4.29171 30.0016 4.22357 29.0195C3.79065 29.331 3.4525 29.7564 3.24665 30.2484C3.19233 30.4488 3.16292 30.6552 3.1591 30.8628C3.10948 31.6173 3.18684 32.3749 3.38797 33.1039C3.59436 33.8405 4.00683 34.5029 4.57686 35.0131C5.7347 35.8283 7.13582 36.2243 8.54905 36.136C9.00107 36.1944 9.45933 36.0939 9.84547 35.8518C9.90039 35.8115 9.9451 35.7589 9.97603 35.6982C10.0016 35.6243 10.0106 35.5456 10.0021 35.4678L9.97142 34.5585L10.3078 34.1084Z" fill="#BA703E"/>
<path d="M26.8626 7.87109L26.4018 8.66983C24.9153 9.19557 23.4581 9.80062 22.0364 10.4824C16.9905 12.5437 4.80204 25.8734 3.18152 29.113C2.7279 30.3774 2.58204 31.7316 2.75603 33.0636C2.45631 32.3773 2.1998 31.673 1.98802 30.9547C1.8187 30.2144 1.83665 29.4436 2.04024 28.712C2.94958 25.4971 12.0491 14.5805 19.6494 10.2704C20.6969 9.67594 21.6032 9.21052 22.3851 8.85109C25.0562 7.62379 26.2897 7.62072 26.8626 7.87109Z" fill="#EF9659"/>
<path d="M20.9381 10.9727L19.8828 11.71" stroke="#641926" stroke-width="0.5" stroke-miterlimit="10" stroke-linecap="round"/>
<path d="M9.56248 19.7695L9.1416 20.1382" stroke="#641926" stroke-width="0.5" stroke-miterlimit="10" stroke-linecap="round"/>
<path d="M7.81586 21.5882C6.22828 22.9322 4.77174 24.4237 3.46581 26.0427C3.44019 26.074 3.40866 26.0999 3.37303 26.119C3.3374 26.1381 3.29836 26.15 3.25813 26.154C3.21791 26.158 3.17729 26.154 3.13861 26.1423C3.09992 26.1306 3.06391 26.1114 3.03264 26.0858C2.9695 26.034 2.92949 25.9593 2.92143 25.8781C2.91336 25.7968 2.9379 25.7157 2.98964 25.6526L3.00192 25.6388C4.40898 24.0614 5.96276 22.6213 7.64229 21.3379C7.67462 21.3155 7.71431 21.3063 7.75317 21.3123C7.79204 21.3183 7.82712 21.339 7.85119 21.3701C7.87372 21.4029 7.88262 21.4432 7.87603 21.4825C7.86944 21.5217 7.84787 21.5569 7.81586 21.5806V21.5882Z" fill="#641926"/>
<path d="M16.9629 13.4434L11.4102 18.6091" stroke="#641926" stroke-width="0.5" stroke-miterlimit="10" stroke-linecap="round"/>
<path d="M25.9809 8.84628C25.4033 8.83921 24.8282 8.92425 24.2774 9.09819C23.711 9.27317 23.171 9.52431 22.6722 9.8447C22.6535 9.85694 22.6326 9.86535 22.6106 9.86942C22.5886 9.8735 22.566 9.87317 22.5441 9.86846C22.5223 9.86374 22.5016 9.85473 22.4832 9.84195C22.4649 9.82918 22.4492 9.81288 22.4372 9.79401C22.4141 9.75778 22.4053 9.71418 22.4127 9.67182C22.4201 9.62946 22.4431 9.5914 22.4772 9.56514C22.981 9.1853 23.5338 8.87528 24.1207 8.64352C24.7206 8.40356 25.3557 8.26346 26.0008 8.22879C26.0412 8.22708 26.0815 8.23333 26.1194 8.24718C26.1573 8.26104 26.1921 8.28222 26.2219 8.30954C26.2516 8.33685 26.2757 8.36976 26.2927 8.40637C26.3097 8.44299 26.3194 8.4826 26.3211 8.52294C26.3228 8.56329 26.3166 8.60357 26.3027 8.6415C26.2888 8.67943 26.2677 8.71426 26.2403 8.744C26.213 8.77374 26.1801 8.7978 26.1435 8.81483C26.1069 8.83185 26.0673 8.84149 26.0269 8.84321H25.9809V8.84628Z" fill="#641926"/>
<path d="M3.61504 30.6861C3.61504 30.6861 3.1189 30.3528 3.61504 29.6585C4.11118 28.9643 25.8369 8.75 25.8369 8.75C26.1026 8.88364 23.9015 11.6024 20.4101 15.166C19.3686 16.229 18.1721 17.1107 16.9632 18.2934C10.8882 24.2363 3.592 30.6232 3.61504 30.6861Z" fill="#BA703E"/>
<path d="M34.2099 7.28516H30.8506V11.8503H34.2099V7.28516Z" fill="#D3884A"/>
<path d="M33.9562 8.18781C36.059 7.61795 37.8931 8.53803 38.4845 12.0356C39.0344 15.2935 35.2327 23.7371 28.0932 30.8735C25.6425 33.3656 22.7178 35.3419 19.4914 36.6859C19.4914 36.6859 11.6852 39.6382 10.3427 36.9931C10.097 36.5209 9.96875 35.9963 9.96875 35.464C9.96875 34.9316 10.097 34.4071 10.3427 33.9349" fill="#D3884A"/>
<path d="M33.9562 8.18781C36.059 7.61795 37.8931 8.53803 38.4845 12.0356C39.0344 15.2935 35.2327 23.7371 28.0932 30.8735C25.6425 33.3656 22.7178 35.3419 19.4914 36.6859C19.4914 36.6859 11.6852 39.6382 10.3427 36.9931C10.097 36.5209 9.96875 35.9963 9.96875 35.464C9.96875 34.9316 10.097 34.4071 10.3427 33.9349" stroke="#641926" stroke-width="0.5" stroke-miterlimit="10"/>
<path d="M9.29492 33.1039L9.68508 32.2698C11.1281 31.6356 12.5361 30.9244 13.903 30.1393C18.7861 27.7155 29.9531 13.5148 31.3278 10.1601C31.6857 8.86564 31.7304 7.50463 31.4584 6.18945C31.8073 6.85188 32.1151 7.53517 32.38 8.23546C32.6033 8.96091 32.6429 9.73046 32.4952 10.475C31.824 13.7498 23.5601 25.3147 16.3023 30.1731C15.3008 30.8428 14.433 31.3728 13.6803 31.7906C11.1105 33.216 9.88015 33.3113 9.29492 33.1039Z" fill="#EF9659"/>
<path d="M35.9252 8.51562C35.8298 10.3047 35.5446 12.0785 35.0742 13.8073C33.5274 17.9583 31.3254 21.8347 28.5522 25.2892C25.4139 29.116 21.5372 32.2718 17.1533 34.5684C16.9842 34.6503 16.8097 34.7206 16.631 34.7788C14.5914 35.3591 12.4471 35.472 10.3578 35.109C10.3501 35.1705 9.68504 38.6573 14.3761 37.7894C16.3552 37.4671 18.2926 36.9273 20.1531 36.1797C22.1403 35.304 23.9871 34.1394 25.6337 32.7236C28.5082 30.3179 31.0758 27.5677 33.2786 24.535C35.3003 21.5226 36.8844 18.2386 37.9834 14.7811C38.3674 13.3092 38.2677 11.7529 37.6993 10.342C37.5525 9.92778 37.318 9.55017 37.0118 9.23496C36.7056 8.91975 36.3349 8.67438 35.9252 8.51562Z" fill="#BA703E"/>
<path d="M17.6383 32.927C17.9072 32.927 18.1252 32.709 18.1252 32.4401C18.1252 32.1711 17.9072 31.9531 17.6383 31.9531C17.3694 31.9531 17.1514 32.1711 17.1514 32.4401C17.1514 32.709 17.3694 32.927 17.6383 32.927Z" fill="#BA703E"/>
<path d="M24.2486 28.6633C24.5176 28.6633 24.7356 28.4453 24.7356 28.1764C24.7356 27.9075 24.5176 27.6895 24.2486 27.6895C23.9797 27.6895 23.7617 27.9075 23.7617 28.1764C23.7617 28.4453 23.9797 28.6633 24.2486 28.6633Z" fill="#BA703E"/>
<path d="M29.2096 19.0949C29.4785 19.0949 29.6965 18.8769 29.6965 18.608C29.6965 18.3391 29.4785 18.1211 29.2096 18.1211C28.9407 18.1211 28.7227 18.3391 28.7227 18.608C28.7227 18.8769 28.9407 19.0949 29.2096 19.0949Z" fill="#BA703E"/>
<path d="M25.0428 24.5993C25.1921 24.5993 25.3131 24.4782 25.3131 24.3289C25.3131 24.1796 25.1921 24.0586 25.0428 24.0586C24.8935 24.0586 24.7725 24.1796 24.7725 24.3289C24.7725 24.4782 24.8935 24.5993 25.0428 24.5993Z" fill="#BA703E"/>
<path d="M33.7059 13.2262C33.8552 13.2262 33.9762 13.1052 33.9762 12.9559C33.9762 12.8066 33.8552 12.6855 33.7059 12.6855C33.5566 12.6855 33.4355 12.8066 33.4355 12.9559C33.4355 13.1052 33.5566 13.2262 33.7059 13.2262Z" fill="#BA703E"/>
<path d="M29.2098 23.2223C29.3591 23.2223 29.4801 23.1013 29.4801 22.952C29.4801 22.8027 29.3591 22.6816 29.2098 22.6816C29.0605 22.6816 28.9395 22.8027 28.9395 22.952C28.9395 23.1013 29.0605 23.2223 29.2098 23.2223Z" fill="#BA703E"/>
<path d="M31.1914 15.4395C31.2847 15.4395 31.3604 15.3638 31.3604 15.2705C31.3604 15.1772 31.2847 15.1016 31.1914 15.1016C31.0981 15.1016 31.0225 15.1772 31.0225 15.2705C31.0225 15.3638 31.0981 15.4395 31.1914 15.4395Z" fill="#BA703E"/>
<path d="M31.8135 19.2637C31.9068 19.2637 31.9825 19.1881 31.9825 19.0947C31.9825 19.0014 31.9068 18.9258 31.8135 18.9258C31.7202 18.9258 31.6445 19.0014 31.6445 19.0947C31.6445 19.1881 31.7202 19.2637 31.8135 19.2637Z" fill="#BA703E"/>
<path d="M26.336 21.7207C26.4293 21.7207 26.5049 21.6451 26.5049 21.5518C26.5049 21.4585 26.4293 21.3828 26.336 21.3828C26.2426 21.3828 26.167 21.4585 26.167 21.5518C26.167 21.6451 26.2426 21.7207 26.336 21.7207Z" fill="#BA703E"/>
<path d="M22.4082 31.0235C22.5015 31.0235 22.5772 30.9478 22.5772 30.8545C22.5772 30.7612 22.5015 30.6855 22.4082 30.6855C22.3149 30.6855 22.2393 30.7612 22.2393 30.8545C22.2393 30.9478 22.3149 31.0235 22.4082 31.0235Z" fill="#BA703E"/>
<path d="M13.7324 33.3555C13.8258 33.3555 13.9014 33.2799 13.9014 33.1865C13.9014 33.0932 13.8258 33.0176 13.7324 33.0176C13.6391 33.0176 13.5635 33.0932 13.5635 33.1865C13.5635 33.2799 13.6391 33.3555 13.7324 33.3555Z" fill="#BA703E"/>
<path d="M20.2899 29.5622C20.4392 29.5622 20.5602 29.4411 20.5602 29.2918C20.5602 29.1425 20.4392 29.0215 20.2899 29.0215C20.1406 29.0215 20.0195 29.1425 20.0195 29.2918C20.0195 29.4411 20.1406 29.5622 20.2899 29.5622Z" fill="#BA703E"/>
<path d="M34.0005 8.07248L33.956 8.18769C33.4195 8.35937 32.939 8.6718 32.5643 9.09241C31.2925 10.4073 28.7073 15.427 24.431 20.1227C21.1262 23.6284 17.6467 26.9654 14.0059 30.1208C12.6742 31.2912 11.8094 32.0162 11.8094 32.0162C11.2017 32.5539 10.7063 33.2064 10.3517 33.9363C9.11044 34.6849 7.68925 35.0825 6.23973 35.0868C5.53984 35.0365 4.88107 34.7374 4.38266 34.2435C3.81235 33.5577 3.53628 32.6743 3.61464 31.7858C3.62573 31.5055 3.69575 31.2307 3.82014 30.9793C3.94453 30.7279 4.1205 30.5055 4.33658 30.3266C6.44402 28.5801 13.4099 22.1503 19.6785 16.1781C21.9325 14.0154 23.983 11.6502 25.8042 9.11238C26.1841 8.58398 26.5323 8.08067 26.8487 7.60245C27.5532 6.5646 28.1929 5.48425 28.7642 4.36756C29.0217 3.68865 29.4474 3.08627 30.0014 2.6169C30.5554 2.14754 31.2195 1.82657 31.9315 1.6841C32.5328 1.61038 33.14 1.76365 33.6343 2.11392C34.1286 2.46419 34.4744 2.98627 34.6042 3.57804C34.8191 5.1032 34.6103 6.65808 34.0005 8.07248Z" fill="#AD3232" stroke="#641926" stroke-width="0.5" stroke-miterlimit="10"/>
<path d="M33.3398 2.24544C33.5196 2.30227 34.2154 3.20239 34.1079 3.17781C33.4935 3.04418 30.7977 2.61409 30.2386 4.07025C28.4896 7.05788 26.4798 9.88496 24.2327 12.5185C22.2734 14.9632 20.1289 17.2535 17.8182 19.3692C10.5988 25.776 5.54526 30.7558 5.09213 31.2059C5.07212 31.2305 5.05414 31.2567 5.03836 31.2842C4.83441 31.5052 4.68325 31.7696 4.59627 32.0574C4.50929 32.3453 4.48876 32.6491 4.53623 32.9461C4.5837 33.243 4.69793 33.5253 4.87032 33.7717C5.0427 34.0181 5.26875 34.2222 5.53143 34.3686C5.58673 34.3993 6.06905 34.768 6.046 34.7495L5.78795 34.7004C5.39812 34.5926 5.0257 34.4297 4.682 34.2165C4.1415 33.5426 3.87445 32.6899 3.93395 31.828C3.94428 31.5477 4.0138 31.2728 4.13797 31.0213C4.26213 30.7698 4.43811 30.5474 4.65435 30.3687C6.76333 28.6223 13.7293 22.1924 19.9978 16.2203C22.2521 14.0579 24.3027 11.6927 26.1235 9.15453C26.5014 8.62767 26.8501 8.12232 27.1665 7.64615C27.8708 6.60609 28.5095 5.52313 29.0789 4.40357C29.913 2.67707 30.4321 2.02118 31.9497 1.84607C32.2385 1.83315 32.5271 1.8743 32.8007 1.96742L33.3398 2.24544Z" fill="#D34444"/>
<path d="M6.52411 31.576C6.30602 31.8623 6.10595 32.1619 5.92506 32.473C5.74272 32.7564 5.61556 33.0717 5.55026 33.4023V33.4131C5.54673 33.4433 5.53728 33.4726 5.52244 33.4992C5.5076 33.5258 5.48766 33.5492 5.46377 33.5681C5.43988 33.587 5.4125 33.601 5.3832 33.6094C5.35389 33.6177 5.32324 33.6201 5.29298 33.6166C5.26272 33.6131 5.23346 33.6036 5.20685 33.5888C5.18025 33.574 5.15683 33.554 5.13793 33.5301C5.11903 33.5062 5.10502 33.4789 5.09671 33.4495C5.08839 33.4202 5.08592 33.3896 5.08945 33.3593V33.3271C5.20782 32.9494 5.39937 32.5986 5.65318 32.2949C5.87954 32.0011 6.12372 31.7215 6.38433 31.4577C6.40104 31.441 6.42369 31.4316 6.44731 31.4316C6.47093 31.4316 6.49358 31.441 6.51029 31.4577C6.52594 31.4728 6.53588 31.4928 6.53841 31.5144C6.54093 31.5359 6.53587 31.5577 6.52411 31.576Z" fill="#641926"/>
<path d="M5.51149 31.4886C5.55427 31.8855 5.64452 32.2759 5.7803 32.6514C5.82945 32.8363 5.91712 33.0089 6.03756 33.1576C6.158 33.3064 6.30849 33.428 6.47919 33.5146C6.48978 33.5173 6.49971 33.522 6.50842 33.5286C6.51712 33.5352 6.52441 33.5435 6.52986 33.5529C6.5353 33.5624 6.53879 33.5728 6.54011 33.5837C6.54144 33.5945 6.54057 33.6055 6.53756 33.616C6.53055 33.6363 6.51643 33.6534 6.4978 33.6641C6.47916 33.6749 6.45728 33.6785 6.43618 33.6744C6.228 33.596 6.03908 33.4739 5.88219 33.3162C5.72531 33.1585 5.60413 32.969 5.52685 32.7604C5.34587 32.3716 5.21329 31.962 5.13209 31.5408C5.12617 31.5157 5.12536 31.4897 5.1297 31.4643C5.13405 31.4389 5.14347 31.4146 5.15739 31.393C5.17132 31.3713 5.18946 31.3526 5.21075 31.3381C5.23204 31.3236 5.25603 31.3135 5.2813 31.3084C5.30657 31.3034 5.3326 31.3034 5.35784 31.3087C5.38307 31.3139 5.407 31.3241 5.4282 31.3388C5.44939 31.3535 5.46741 31.3722 5.4812 31.394C5.49498 31.4158 5.50424 31.4401 5.50842 31.4655L5.51149 31.4886Z" fill="#641926"/>
<path d="M4.79245 32.3701C5.13455 32.465 5.48567 32.5237 5.84003 32.5452C6.16282 32.5948 6.49238 32.5196 6.76165 32.3348L6.77087 32.3225C6.78519 32.3082 6.80219 32.2968 6.82091 32.2891C6.83962 32.2813 6.85967 32.2773 6.87993 32.2773C6.90018 32.2773 6.92024 32.2813 6.93895 32.2891C6.95766 32.2968 6.97466 32.3082 6.98899 32.3225C7.00331 32.3368 7.01467 32.3538 7.02242 32.3726C7.03017 32.3913 7.03416 32.4113 7.03416 32.4316C7.03416 32.4518 7.03017 32.4719 7.02242 32.4906C7.01467 32.5093 7.00331 32.5263 6.98899 32.5406C6.82885 32.6734 6.64369 32.7727 6.44448 32.8326C6.24528 32.8924 6.03608 32.9117 5.82928 32.8893C5.44604 32.8782 5.06505 32.8267 4.69261 32.7357C4.64291 32.7241 4.59986 32.6932 4.57292 32.6499C4.54599 32.6065 4.53738 32.5542 4.54899 32.5045C4.5606 32.4548 4.59148 32.4118 4.63483 32.3849C4.67819 32.3579 4.73046 32.3493 4.78016 32.3609L4.79245 32.3701Z" fill="#641926"/>
<path d="M31.3939 1.97938C31.7176 2.21099 31.9961 2.49992 32.2157 2.83188C32.3457 3.00944 32.4262 3.21837 32.4488 3.43728C32.4715 3.65618 32.4356 3.87717 32.3447 4.07761C32.3334 4.10024 32.3177 4.12042 32.2986 4.13698C32.2795 4.15354 32.2572 4.16615 32.2332 4.17409C32.2092 4.18204 32.1838 4.18515 32.1586 4.18326C32.1333 4.18136 32.1087 4.1745 32.0862 4.16306C32.0636 4.15162 32.0435 4.13583 32.0271 4.1166C32.0106 4.09738 31.9981 4.07508 31.9903 4.05101C31.9825 4.02694 31.9795 4.00156 31.9816 3.97634C31.9836 3.95111 31.9906 3.92654 32.0022 3.90403C32.3094 3.35874 31.7441 2.64602 31.2173 2.22515C31.2022 2.21332 31.1897 2.19863 31.1804 2.18192C31.1711 2.16522 31.1652 2.14682 31.163 2.12782C31.1609 2.10881 31.1625 2.08957 31.1679 2.0712C31.1732 2.05284 31.1822 2.03573 31.1942 2.02085C31.2167 1.99071 31.2494 1.96984 31.2862 1.96219C31.323 1.95455 31.3613 1.96067 31.3939 1.97938Z" fill="#641926"/>
<path d="M31.0914 3.08156C31.2226 2.76764 31.4392 2.49678 31.7166 2.29972C32.0143 2.101 32.3739 2.01695 32.7288 2.06317H32.7396C32.7882 2.07154 32.8318 2.09818 32.8615 2.13764C32.8911 2.1771 32.9046 2.22639 32.8991 2.27544C32.8936 2.3245 32.8696 2.3696 32.8319 2.40152C32.7943 2.43344 32.7459 2.44977 32.6966 2.44718H32.6658C32.3835 2.39223 32.091 2.43236 31.8339 2.56132C31.5769 2.69027 31.3698 2.90076 31.245 3.1599C31.2405 3.16993 31.2341 3.17898 31.2261 3.18651C31.2181 3.19404 31.2087 3.1999 31.1984 3.20376C31.1881 3.20762 31.1771 3.2094 31.1662 3.20899C31.1552 3.20858 31.1444 3.20599 31.1344 3.20137C31.1129 3.19106 31.0964 3.17271 31.0883 3.15029C31.0803 3.12786 31.0814 3.10317 31.0914 3.08156Z" fill="#641926"/>
<path d="M32.8904 3.17428C32.6596 2.88442 32.3327 2.68665 31.9688 2.6167C31.611 2.56612 31.2469 2.6457 30.9428 2.84096C30.8992 2.86119 30.8496 2.86434 30.8038 2.84979C30.758 2.83524 30.7193 2.80406 30.6954 2.76239C30.6715 2.72072 30.6641 2.6716 30.6746 2.62472C30.6851 2.57784 30.7128 2.53661 30.7523 2.50918H30.7646C31.1537 2.3017 31.6041 2.23962 32.0349 2.33407C32.4536 2.44674 32.8178 2.70626 33.0609 3.06522C33.0686 3.07611 33.0741 3.08841 33.077 3.10141C33.0799 3.1144 33.0802 3.12785 33.0779 3.14097C33.0757 3.1541 33.0708 3.16664 33.0637 3.17789C33.0565 3.18914 33.0473 3.19888 33.0364 3.20654C33.0154 3.22156 32.9896 3.22815 32.964 3.22503C32.9384 3.2219 32.9149 3.20927 32.8981 3.18964L32.8904 3.17428Z" fill="#641926"/>
<path opacity="0.86" d="M33.4532 7.81355C33.3318 7.77744 33.2074 7.75225 33.0815 7.73828C32.8034 7.76347 32.5376 7.865 32.3135 8.03166C31.9909 8.21906 28.071 14.1758 22.8577 19.9528C17.1897 26.2337 10.1285 32.6605 10.0333 32.8417C9.98579 32.9838 9.9689 33.1343 9.98373 33.2833C9.99855 33.4324 10.0448 33.5766 10.1193 33.7065L10.4265 33.1505C10.6423 32.8461 10.8746 32.5539 11.1223 32.2749C11.1223 32.2749 11.9564 31.447 12.0655 31.4009C12.1745 31.3549 13.8841 29.8311 13.8841 29.8311L16.5261 27.4902L19.1835 25.011L22.0405 22.2769L25.4904 18.4368L28.0771 15.1466L32.1 9.34805L32.9909 8.4126L33.7052 7.94104L33.4532 7.81355Z" fill="#7F2626"/>
<path d="M30.8571 9.56908C30.4454 9.88857 26.8035 10.1374 26.57 10.4554C26.1875 10.9715 28.4947 12.1757 28.6314 13.2417C28.851 14.9099 26.4195 14.9314 24.5563 14.8177L24.3581 14.8131C24.1446 14.8008 23.9418 14.7839 23.7514 14.7701H23.6408C23.5931 14.7671 23.5459 14.7803 23.5067 14.8076C23.4675 14.8348 23.4386 14.8744 23.4248 14.9201C23.4109 14.9658 23.4129 15.0148 23.4303 15.0592C23.4478 15.1036 23.4797 15.1409 23.521 15.1649L24.779 15.8976C24.908 15.9943 25.0263 16.0865 25.1338 16.1771C26.2351 17.1126 26.1829 17.7869 25.312 18.8314C24.3566 19.9773 20.3076 18.6547 19.7055 18.4044C19.1033 18.154 19.2446 18.4044 19.2446 18.4044C19.6677 18.6675 20.0576 18.9805 20.4059 19.3367C20.8048 19.6759 21.1035 20.1175 21.2697 20.614C21.4359 21.1104 21.4633 21.6429 21.349 22.1538C20.6993 24.2859 16.3661 22.6146 15.9729 22.461C15.5797 22.3074 15.6657 22.7452 15.6657 22.7452L16.8791 24.9924C17.0518 25.2525 17.119 25.5686 17.067 25.8764C17.0151 26.1842 16.848 26.4607 16.5996 26.6498C15.7194 27.53 12.354 26.5408 11.9147 26.3088C11.4754 26.0769 11.5921 26.3703 11.5921 26.3703L12.4999 27.2765C14.0359 28.619 13.1512 29.8402 12.5875 30.1781C11.4548 30.3293 10.303 30.1271 9.28959 29.599C8.67517 29.2273 8.92555 29.7618 8.92555 29.7618L9.58604 30.7771C9.65503 30.8826 9.69541 31.0042 9.70322 31.1299C9.71103 31.2557 9.686 31.3813 9.63059 31.4945C9.57757 31.6318 9.49033 31.7533 9.37714 31.8474C9.26396 31.9414 9.1286 32.005 8.98392 32.0321C8.85544 32.0468 8.72535 32.0283 8.60599 31.9786C8.48663 31.9289 8.38196 31.8495 8.30191 31.7479C4.50637 27.1552 8.78577 27.7911 10.4109 28.1567C10.4469 28.1641 10.4843 28.1601 10.518 28.1453C10.5516 28.1304 10.5798 28.1055 10.5986 28.0738C10.6173 28.0422 10.6258 28.0055 10.6227 27.9689C10.6196 27.9322 10.6052 27.8975 10.5814 27.8694C5.79971 22.5901 14.4522 25.3657 14.9053 25.5239C15.3585 25.6821 15.2125 25.3611 15.2125 25.3611C14.8612 24.8457 14.5456 24.3068 14.2679 23.7482C11.8993 18.8467 18.8929 21.5118 19.2907 21.7237C19.5073 21.8405 19.5979 21.7775 19.6394 21.6853C19.6575 21.6325 19.6604 21.5757 19.6476 21.5213C19.6348 21.467 19.607 21.4173 19.5672 21.3781C12.7549 14.4813 22.6301 17.5595 23.3674 17.581C24.1047 17.6026 23.8082 17.3261 23.8082 17.3261C17.2509 12.6196 22.905 12.7456 25.4564 12.9883C25.5321 12.9952 25.6081 12.9789 25.6743 12.9416C25.7405 12.9043 25.7939 12.8477 25.8272 12.7794C25.8605 12.711 25.8723 12.6342 25.8609 12.559C25.8496 12.4839 25.8156 12.4139 25.7636 12.3585C25.2459 11.7933 24.1984 11.1297 24.2828 9.9239C24.4242 7.89172 29.616 8.01154 30.6451 8.11291C30.8086 8.12759 30.9664 8.18018 31.1059 8.26652C31.8217 8.67818 31.1551 9.33253 30.8571 9.56908Z" fill="#F79F2B"/>
<path d="M27.8142 8.12891C27.8142 8.12891 22.8236 8.34395 24.6499 11.1718C24.6499 11.1718 23.4334 8.8447 27.8142 8.12891Z" fill="#FFB26C"/>
<path d="M20.9386 14.6201C20.9386 14.6201 19.8342 13.1778 22.4086 12.9551C22.4086 12.9551 20.805 13.4681 20.9386 14.6201Z" fill="#FFB26C"/>
<path d="M27.1061 11.3745C27.1061 11.3745 24.8604 10.0012 27.53 10.1825C27.6222 10.2055 25.8004 10.2931 27.1061 11.3745Z" fill="#D38529"/>
<path d="M28.0772 12.2988C28.0772 12.2988 29.429 14.1682 26.3369 14.8394C26.3369 14.8394 30.2262 14.7396 28.0772 12.2988Z" fill="#D38529"/>
<path d="M23.4638 15.1023C23.4638 15.1023 22.92 14.4878 23.685 14.7582C23.685 14.7582 23.3194 14.7828 23.4638 15.1023Z" fill="#D38529"/>
<path d="M18.0731 19.6876C18.0731 19.6876 16.4542 16.505 19.8473 16.9228C19.8473 16.9228 15.2453 16.1717 18.0731 19.6876Z" fill="#FFB26C"/>
<path d="M14.268 23.7444C14.268 23.7444 12.2481 20.5601 17.3124 21.0686C17.3124 21.0686 12.0837 19.3282 14.268 23.7444Z" fill="#FFB26C"/>
<path d="M9.38337 26.2475C9.38337 26.2475 8.56313 24.7115 10.6583 24.6531C10.6583 24.6531 8.36345 24.4534 9.38337 26.2475Z" fill="#FFB26C"/>
<path d="M7.13272 30.0619C7.13272 30.0619 6.58743 28.0083 9.18947 27.9453C9.18947 27.9453 5.6658 27.2955 7.13272 30.0619Z" fill="#FFB26C"/>
<path d="M19.285 18.413C19.285 18.413 18.8933 18.1688 19.3833 18.2855C19.3833 18.2855 19.1467 18.2671 19.285 18.413Z" fill="#D38529"/>
<path d="M19.0293 23.2022C19.6654 23.0865 20.2379 22.7438 20.6405 22.2379C21.043 21.7319 21.2483 21.097 21.2182 20.4512C21.2182 20.4512 22.8387 23.5064 19.0293 23.2022Z" fill="#D38529"/>
<path d="M11.2939 30.2154C11.2939 30.2154 13.1295 30.0203 13.3461 29.0234C13.3461 29.0234 13.4551 30.7392 11.2939 30.2154Z" fill="#D38529"/>
<path d="M9.1288 30.0593C9.1288 30.0593 7.80934 28.6185 9.44522 29.683C9.44522 29.683 8.86767 29.362 9.1288 30.0593Z" fill="#D38529"/>
<path d="M25.4317 14.3302C25.8686 14.3302 26.2227 14.1597 26.2227 13.9493C26.2227 13.7389 25.8686 13.5684 25.4317 13.5684C24.9948 13.5684 24.6406 13.7389 24.6406 13.9493C24.6406 14.1597 24.9948 14.3302 25.4317 14.3302Z" fill="#FFB26C"/>
<path d="M12.2422 25.8283C12.6791 25.8283 13.0333 25.6577 13.0333 25.4473C13.0333 25.237 12.6791 25.0664 12.2422 25.0664C11.8053 25.0664 11.4512 25.237 11.4512 25.4473C11.4512 25.6577 11.8053 25.8283 12.2422 25.8283Z" fill="#FFB26C"/>
</svg>
