<svg width="70" height="70" viewBox="0 0 70 70" fill="none" xmlns="http://www.w3.org/2000/svg">
<rect width="70" height="70" rx="35" fill="#7E5FA5"/>
<path d="M19.0344 30V19.8182H25.7758V21.593H21.1871V24.0192H25.3284V25.794H21.1871V30H19.0344ZM30.0738 30.1491C29.3015 30.1491 28.6337 29.9851 28.0702 29.657C27.5101 29.3255 27.0776 28.8648 26.7726 28.2749C26.4677 27.6816 26.3153 26.9938 26.3153 26.2116C26.3153 25.4228 26.4677 24.7334 26.7726 24.1435C27.0776 23.5502 27.5101 23.0895 28.0702 22.7614C28.6337 22.4299 29.3015 22.2642 30.0738 22.2642C30.846 22.2642 31.5122 22.4299 32.0724 22.7614C32.6358 23.0895 33.07 23.5502 33.3749 24.1435C33.6798 24.7334 33.8323 25.4228 33.8323 26.2116C33.8323 26.9938 33.6798 27.6816 33.3749 28.2749C33.07 28.8648 32.6358 29.3255 32.0724 29.657C31.5122 29.9851 30.846 30.1491 30.0738 30.1491ZM30.0837 28.5085C30.435 28.5085 30.7284 28.4091 30.9637 28.2102C31.199 28.008 31.3763 27.733 31.4956 27.3849C31.6183 27.0369 31.6796 26.6409 31.6796 26.1967C31.6796 25.7526 31.6183 25.3565 31.4956 25.0085C31.3763 24.6605 31.199 24.3854 30.9637 24.1832C30.7284 23.9811 30.435 23.88 30.0837 23.88C29.7291 23.88 29.4308 23.9811 29.1888 24.1832C28.9502 24.3854 28.7696 24.6605 28.6469 25.0085C28.5276 25.3565 28.468 25.7526 28.468 26.1967C28.468 26.6409 28.5276 27.0369 28.6469 27.3849C28.7696 27.733 28.9502 28.008 29.1888 28.2102C29.4308 28.4091 29.7291 28.5085 30.0837 28.5085ZM38.6597 30.1491C37.8875 30.1491 37.2196 29.9851 36.6562 29.657C36.096 29.3255 35.6635 28.8648 35.3586 28.2749C35.0537 27.6816 34.9012 26.9938 34.9012 26.2116C34.9012 25.4228 35.0537 24.7334 35.3586 24.1435C35.6635 23.5502 36.096 23.0895 36.6562 22.7614C37.2196 22.4299 37.8875 22.2642 38.6597 22.2642C39.432 22.2642 40.0982 22.4299 40.6583 22.7614C41.2217 23.0895 41.6559 23.5502 41.9608 24.1435C42.2658 24.7334 42.4182 25.4228 42.4182 26.2116C42.4182 26.9938 42.2658 27.6816 41.9608 28.2749C41.6559 28.8648 41.2217 29.3255 40.6583 29.657C40.0982 29.9851 39.432 30.1491 38.6597 30.1491ZM38.6697 28.5085C39.021 28.5085 39.3143 28.4091 39.5496 28.2102C39.7849 28.008 39.9623 27.733 40.0816 27.3849C40.2042 27.0369 40.2655 26.6409 40.2655 26.1967C40.2655 25.7526 40.2042 25.3565 40.0816 25.0085C39.9623 24.6605 39.7849 24.3854 39.5496 24.1832C39.3143 23.9811 39.021 23.88 38.6697 23.88C38.315 23.88 38.0167 23.9811 37.7748 24.1832C37.5361 24.3854 37.3555 24.6605 37.2329 25.0085C37.1135 25.3565 37.0539 25.7526 37.0539 26.1967C37.0539 26.6409 37.1135 27.0369 37.2329 27.3849C37.3555 27.733 37.5361 28.008 37.7748 28.2102C38.0167 28.4091 38.315 28.5085 38.6697 28.5085ZM46.6093 30.1243C46.0293 30.1243 45.5039 29.9751 45.0333 29.6768C44.566 29.3752 44.1948 28.9328 43.9197 28.3494C43.6479 27.7628 43.512 27.0436 43.512 26.1918C43.512 25.3168 43.6528 24.5893 43.9346 24.0092C44.2163 23.4259 44.5908 22.9901 45.0581 22.7017C45.5288 22.41 46.0442 22.2642 46.6043 22.2642C47.0319 22.2642 47.3882 22.3371 47.6732 22.483C47.9616 22.6255 48.1936 22.8045 48.3692 23.0199C48.5482 23.232 48.6841 23.4408 48.7769 23.6463H48.8415V19.8182H50.9545V30H48.8664V28.777H48.7769C48.6775 28.9891 48.5366 29.1996 48.3543 29.4084C48.1753 29.6139 47.9417 29.7846 47.6533 29.9205C47.3683 30.0563 47.0203 30.1243 46.6093 30.1243ZM47.2805 28.4389C47.6218 28.4389 47.9102 28.3461 48.1455 28.1605C48.3841 27.9716 48.5664 27.7081 48.6924 27.37C48.8216 27.032 48.8863 26.6359 48.8863 26.1818C48.8863 25.7277 48.8233 25.3333 48.6974 24.9986C48.5714 24.6638 48.3891 24.4053 48.1505 24.223C47.9118 24.0407 47.6218 23.9496 47.2805 23.9496C46.9324 23.9496 46.6391 24.044 46.4005 24.233C46.1618 24.4219 45.9812 24.6837 45.8586 25.0185C45.7359 25.3532 45.6746 25.741 45.6746 26.1818C45.6746 26.6259 45.7359 27.0187 45.8586 27.3601C45.9845 27.6982 46.1652 27.9633 46.4005 28.1555C46.6391 28.3445 46.9324 28.4389 47.2805 28.4389ZM11.1594 47H7.54998V36.8182H11.1892C12.2133 36.8182 13.095 37.022 13.8341 37.4297C14.5732 37.834 15.1416 38.4157 15.5393 39.1747C15.9404 39.9337 16.1409 40.8419 16.1409 41.8991C16.1409 42.9598 15.9404 43.8712 15.5393 44.6335C15.1416 45.3958 14.5699 45.9808 13.8241 46.3885C13.0817 46.7962 12.1934 47 11.1594 47ZM9.70268 45.1555H11.0699C11.7062 45.1555 12.2415 45.0429 12.6757 44.8175C13.1132 44.5888 13.4413 44.2358 13.6601 43.7585C13.8821 43.2779 13.9932 42.6581 13.9932 41.8991C13.9932 41.1468 13.8821 40.532 13.6601 40.0547C13.4413 39.5774 13.1148 39.2261 12.6807 39.0007C12.2465 38.7753 11.7112 38.6626 11.0748 38.6626H9.70268V45.1555ZM21.1759 47.1491C20.3904 47.1491 19.7142 46.9901 19.1475 46.6719C18.584 46.3504 18.1498 45.8963 17.8449 45.3097C17.54 44.7197 17.3875 44.022 17.3875 43.2166C17.3875 42.4311 17.54 41.7417 17.8449 41.1484C18.1498 40.5552 18.579 40.0928 19.1325 39.7614C19.6894 39.4299 20.3423 39.2642 21.0914 39.2642C21.5951 39.2642 22.0641 39.3454 22.4983 39.5078C22.9358 39.6669 23.317 39.9072 23.6418 40.2287C23.9699 40.5502 24.2251 40.9545 24.4074 41.4418C24.5897 41.9257 24.6808 42.4924 24.6808 43.142V43.7237H18.2327V42.4112H22.6872C22.6872 42.1063 22.6209 41.8362 22.4884 41.6009C22.3558 41.3655 22.1718 41.1816 21.9365 41.049C21.7045 40.9131 21.4344 40.8452 21.1262 40.8452C20.8047 40.8452 20.5196 40.9197 20.271 41.0689C20.0258 41.2147 19.8335 41.4119 19.6943 41.6605C19.5551 41.9058 19.4839 42.1792 19.4806 42.4808V43.7287C19.4806 44.1065 19.5502 44.433 19.6894 44.7081C19.8319 44.9832 20.0324 45.1953 20.2909 45.3445C20.5494 45.4936 20.856 45.5682 21.2107 45.5682C21.446 45.5682 21.6614 45.535 21.857 45.4688C22.0525 45.4025 22.2199 45.303 22.3591 45.1705C22.4983 45.0379 22.6044 44.8755 22.6773 44.6832L24.6361 44.8125C24.5367 45.2831 24.3328 45.6941 24.0246 46.0455C23.7197 46.3935 23.3253 46.6652 22.8414 46.8608C22.3608 47.053 21.8056 47.1491 21.1759 47.1491ZM28.1808 36.8182V47H26.0629V36.8182H28.1808ZM29.8774 47V39.3636H31.9953V47H29.8774ZM30.9413 38.3793C30.6265 38.3793 30.3563 38.2749 30.1309 38.0661C29.9089 37.8539 29.7979 37.6004 29.7979 37.3054C29.7979 37.0137 29.9089 36.7635 30.1309 36.5547C30.3563 36.3426 30.6265 36.2365 30.9413 36.2365C31.2562 36.2365 31.5247 36.3426 31.7467 36.5547C31.9721 36.7635 32.0848 37.0137 32.0848 37.3054C32.0848 37.6004 31.9721 37.8539 31.7467 38.0661C31.5247 38.2749 31.2562 38.3793 30.9413 38.3793ZM40.8112 39.3636L38.1414 47H35.7551L33.0853 39.3636H35.3225L36.9085 44.8274H36.988L38.569 39.3636H40.8112ZM45.129 47.1491C44.3435 47.1491 43.6673 46.9901 43.1006 46.6719C42.5371 46.3504 42.103 45.8963 41.798 45.3097C41.4931 44.7197 41.3406 44.022 41.3406 43.2166C41.3406 42.4311 41.4931 41.7417 41.798 41.1484C42.103 40.5552 42.5322 40.0928 43.0857 39.7614C43.6425 39.4299 44.2954 39.2642 45.0445 39.2642C45.5483 39.2642 46.0173 39.3454 46.4514 39.5078C46.8889 39.6669 47.2701 39.9072 47.5949 40.2287C47.923 40.5502 48.1782 40.9545 48.3605 41.4418C48.5428 41.9257 48.634 42.4924 48.634 43.142V43.7237H42.1858V42.4112H46.6404C46.6404 42.1063 46.5741 41.8362 46.4415 41.6009C46.3089 41.3655 46.125 41.1816 45.8896 41.049C45.6576 40.9131 45.3875 40.8452 45.0793 40.8452C44.7578 40.8452 44.4727 40.9197 44.2242 41.0689C43.9789 41.2147 43.7867 41.4119 43.6475 41.6605C43.5083 41.9058 43.437 42.1792 43.4337 42.4808V43.7287C43.4337 44.1065 43.5033 44.433 43.6425 44.7081C43.785 44.9832 43.9855 45.1953 44.2441 45.3445C44.5026 45.4936 44.8092 45.5682 45.1638 45.5682C45.3991 45.5682 45.6146 45.535 45.8101 45.4688C46.0057 45.4025 46.173 45.303 46.3122 45.1705C46.4514 45.0379 46.5575 44.8755 46.6304 44.6832L48.5892 44.8125C48.4898 45.2831 48.286 45.6941 47.9777 46.0455C47.6728 46.3935 47.2784 46.6652 46.7945 46.8608C46.3139 47.053 45.7587 47.1491 45.129 47.1491ZM50.0161 47V39.3636H52.0693V40.696H52.1489C52.2881 40.2221 52.5218 39.8641 52.8499 39.6222C53.178 39.3769 53.5558 39.2543 53.9834 39.2543C54.0895 39.2543 54.2038 39.2609 54.3264 39.2741C54.4491 39.2874 54.5568 39.3056 54.6496 39.3288V41.2081C54.5502 41.1783 54.4126 41.1518 54.2369 41.1286C54.0613 41.1054 53.9005 41.0938 53.7547 41.0938C53.4432 41.0938 53.1647 41.1617 52.9195 41.2976C52.6775 41.4302 52.4853 41.6158 52.3428 41.8544C52.2036 42.093 52.134 42.3681 52.134 42.6797V47H50.0161ZM57.2845 49.8636C57.0161 49.8636 56.7642 49.8421 56.5289 49.799C56.2968 49.7592 56.1046 49.7079 55.9521 49.6449L56.4294 48.0639C56.678 48.1402 56.9017 48.1816 57.1006 48.1882C57.3028 48.1948 57.4768 48.1484 57.6226 48.049C57.7718 47.9496 57.8927 47.7805 57.9855 47.5419L58.1098 47.2188L55.3705 39.3636H57.5977L59.1787 44.9716H59.2583L60.8541 39.3636H63.0963L60.1283 47.8253C59.9858 48.2363 59.7919 48.5942 59.5466 48.8991C59.3047 49.2074 58.9981 49.4444 58.6269 49.6101C58.2557 49.7791 57.8082 49.8636 57.2845 49.8636Z" fill="#FED203"/>
</svg>
